# xmcd
#
# Track frame offsets:
#	150
#	15195
#	28865
#	49722
#	67822
#	91517
#	108622
#	125835
#	144577
#	161570
#	176202
#
# Disc length: 2538 seconds
# Revision: 2
# Processed by: cddbd v1.5.2PL0 Copyright (c) Steve Scherf et al.
# Submitted via: dBpowerAMP V12.0
#
DISCID=8c09e80b
DTITLE=Trace Adkins - Comin' On Strong
DYEAR=2003
DGENRE=Country
TTITLE0=Hot Mama
TTITLE1=Comin' On Strong
TTITLE2=Then Came The Night
TTITLE3=I'd Sure Hate To Break Down Here
TTITLE4=Missing You
TTITLE5=One Of Those Nights
TTITLE6=Untamed
TTITLE7=Then I Wake Up
TTITLE8=One Nightstand
TTITLE9=Baby's Gone
TTITLE10=Rough and Ready
EXTD=
EXTT0=
EXTT1=
EXTT2=
EXTT3=
EXTT4=
EXTT5=
EXTT6=
EXTT7=
EXTT8=
EXTT9=
EXTT10=
PLAYORDER=
